<?xml version="1.0" encoding="utf-8"?>
<!-- Generator: Adobe Illustrator 21.0.2, SVG Export Plug-In . SVG Version: 6.00 Build 0)  -->
<svg version="1.1" id="Layer_1" xmlns:sketch="http://www.bohemiancoding.com/sketch/ns"
	 xmlns="http://www.w3.org/2000/svg" xmlns:xlink="http://www.w3.org/1999/xlink" x="0px" y="0px" viewBox="0 0 79 79"
	 style="enable-background:new 0 0 79 79;" xml:space="preserve">
<style type="text/css">
	.st0{fill:none;stroke:#000000;stroke-width:3;}
</style>
<title>Linux</title>
<desc>Created with Sketch.</desc>
<g id="Page-1" sketch:type="MSPage">
	<g id="Linux" transform="translate(2.000000, 2.000000)" sketch:type="MSLayerGroup">
		<path id="Fill-1" sketch:type="MSShapeGroup" d="M37.5,30c3.5,0,7.1,0,10.6,0c0.4,0,0.5,0.1,0.5,0.5c0,5.6,0,11.2,0,16.8
			c0,1.7-1,2.7-2.8,2.7c-0.4,0-0.9,0-1.3,0c-0.2,0-0.2,0.1-0.2,0.3c0,1.9,0.1,3.7,0,5.6c0,1.2-1.1,2.2-2.4,2.2c-1.2,0-2.3-1-2.3-2.3
			c0-1.9,0-3.7,0-5.6c0-0.1-0.1-0.2-0.2-0.2c-1.3,0-2.5,0-3.8,0c-0.2,0-0.3,0.1-0.3,0.3c0,1.8,0.1,3.6,0,5.4c0,1.7-1.5,2.7-3.1,2.3
			c-1-0.3-1.7-1.2-1.7-2.3c0-1.8,0-3.6,0-5.4c0-0.1-0.2-0.2-0.3-0.2c-0.5,0-1,0-1.5,0c-1.4,0-2.5-1.1-2.5-2.5c0-5.7,0-11.4,0-17
			c0-0.4,0.2-0.4,0.5-0.4C30.4,30,33.9,30,37.5,30"/>
		<path id="Fill-2" sketch:type="MSShapeGroup" d="M37.5,28.4c-3.5,0-7,0-10.5,0c-0.6,0-0.6,0-0.5-0.6c0.2-2.4,1.4-4.4,3.3-5.9
			c0.6-0.5,1.3-0.9,2-1.3c0.3-0.2,0.3-0.2,0.1-0.5c-0.5-0.8-1-1.5-1.5-2.3c-0.2-0.2-0.3-0.5,0-0.7c0.3-0.2,0.5,0,0.7,0.3
			c0.5,0.8,1.1,1.6,1.6,2.5c0.2,0.2,0.3,0.3,0.5,0.2c2.9-1,5.8-1,8.7,0c0.3,0.1,0.4,0,0.6-0.2c0.5-0.8,1.1-1.7,1.7-2.5
			c0.2-0.4,0.6-0.4,0.7,0c0,0.1,0,0.4-0.1,0.5c-0.5,0.8-1,1.6-1.5,2.3c-0.2,0.3-0.2,0.4,0.1,0.6c2,1,3.6,2.5,4.6,4.5
			c0.4,0.9,0.6,1.8,0.7,2.7c0,0.4,0,0.5-0.4,0.5C44.6,28.4,41,28.4,37.5,28.4L37.5,28.4z M43.4,24.1c0-0.6-0.5-1.2-1.1-1.2
			c-0.6,0-1.2,0.5-1.2,1.1c0,0.7,0.5,1.2,1.1,1.2C42.8,25.3,43.4,24.8,43.4,24.1L43.4,24.1z M33.9,24c0-0.7-0.5-1.2-1.2-1.2
			c-0.6,0-1.2,0.6-1.2,1.2c0,0.7,0.5,1.2,1.2,1.2C33.4,25.2,33.9,24.7,33.9,24L33.9,24z"/>
		<path id="Fill-3" sketch:type="MSShapeGroup" d="M54.9,37.5c0,1.7,0,3.3,0,5c0,1.5-1,2.5-2.4,2.5c-1.4,0-2.4-1.1-2.4-2.5
			c0-3.4,0-6.7,0-10.1c0-1.2,0.9-2.2,2.1-2.4c1.2-0.1,2.3,0.6,2.6,1.8c0.1,0.2,0.1,0.5,0.1,0.7C54.9,34.2,54.9,35.8,54.9,37.5"/>
		<path id="Fill-4" sketch:type="MSShapeGroup" d="M24.8,37.5c0,1.7,0,3.5,0,5.2c0,1.1-0.8,2-1.9,2.2c-1.1,0.2-2.2-0.3-2.7-1.4
			c-0.1-0.3-0.2-0.7-0.2-1.1c0-3.3,0-6.7,0-10c0-1.4,1-2.5,2.4-2.5c1.4,0,2.4,1,2.4,2.5C24.8,34.1,24.8,35.8,24.8,37.5L24.8,37.5"/>
		<circle id="Oval-5" sketch:type="MSShapeGroup" class="st0" cx="37.5" cy="37.5" r="37.5">
		</circle>
	</g>
</g>
</svg>
