<?xml version="1.0" encoding="utf-8"?>
<!-- Generator: Adobe Illustrator 21.0.2, SVG Export Plug-In . SVG Version: 6.00 Build 0)  -->
<svg version="1.1" id="Layer_1" xmlns:sketch="http://www.bohemiancoding.com/sketch/ns"
	 xmlns="http://www.w3.org/2000/svg" xmlns:xlink="http://www.w3.org/1999/xlink" x="0px" y="0px" viewBox="0 0 79 79"
	 style="enable-background:new 0 0 79 79;" xml:space="preserve">
<style type="text/css">
	.st0{fill:none;stroke:#000000;stroke-width:3;}
</style>
<title>Linux</title>
<desc>Created with Sketch.</desc>
<g id="Page-1" sketch:type="MSPage">
	<g id="Linux" transform="translate(2.000000, 2.000000)" sketch:type="MSLayerGroup">
		<path id="Fill-1" sketch:type="MSShapeGroup" d="M53.3,30.4c-6.6,4.3-5.8,13.6,1.2,16.8c-0.6,1.3-1.1,2.6-1.8,3.9
			c-1.1,2-2.3,3.9-3.9,5.5c-1.2,1.2-2.6,1.9-4.3,1.7c-0.8-0.1-1.6-0.3-2.4-0.6c-1.1-0.4-2.2-0.9-3.4-1c-1.5-0.1-2.8,0.2-4.2,0.7
			c-0.8,0.3-1.6,0.6-2.4,0.8c-1.2,0.3-2.4,0.1-3.5-0.6c-1.1-0.7-1.9-1.7-2.7-2.7c-2.9-3.7-4.8-7.9-5.5-12.6
			c-0.5-3.1-0.4-6.3,0.8-9.3c1.4-3.4,3.9-5.6,7.5-6.4c2-0.5,3.8-0.1,5.7,0.7c0.7,0.3,1.3,0.5,2,0.8c0.7,0.3,1.5,0.3,2.2,0
			c1.3-0.5,2.7-1.1,4-1.4c4-0.9,7.4,0.1,10.2,3.2C53,30,53.1,30.2,53.3,30.4"/>
		<path id="Fill-2" sketch:type="MSShapeGroup" d="M45.6,16.1c0.7,4.8-4,10.1-8.3,9.6C36.4,21.6,41.5,15.7,45.6,16.1"/>
		<circle id="Oval-5" sketch:type="MSShapeGroup" class="st0" cx="37.5" cy="37.5" r="37.5">
		</circle>
	</g>
</g>
</svg>
