<?xml version="1.0" encoding="utf-8"?>
<!-- Generator: Adobe Illustrator 21.0.2, SVG Export Plug-In . SVG Version: 6.00 Build 0)  -->
<svg version="1.1" id="Layer_1" xmlns:sketch="http://www.bohemiancoding.com/sketch/ns"
	 xmlns="http://www.w3.org/2000/svg" xmlns:xlink="http://www.w3.org/1999/xlink" x="0px" y="0px" viewBox="0 0 79 79"
	 style="enable-background:new 0 0 79 79;" xml:space="preserve">
<style type="text/css">
	.st0{fill:none;stroke:#000000;stroke-width:3;}
</style>
<title>Linux</title>
<desc>Created with Sketch.</desc>
<g id="Page-1" sketch:type="MSPage">
	<g id="Linux" transform="translate(2.000000, 2.000000)" sketch:type="MSLayerGroup">
		<path id="Fill-1" sketch:type="MSShapeGroup" d="M32.3,24.2c3.5,0,6.3,1,8.5,3.4c1.5,1.6,2.4,3.5,2.9,5.7c0.9,4.4,0.5,8.5-2,12.3
			c-1.9,2.9-4.6,4.3-8,4.7c-2.9,0.3-5.6-0.3-8-1.9c-2.6-1.8-4.2-4.3-4.8-7.4c-0.6-2.9-0.5-5.8,0.4-8.7C23,27.2,27.4,24.1,32.3,24.2
			L32.3,24.2z M25.9,37.2c-0.1,1.6,0.1,3.1,0.7,4.6c0.9,2.3,2.6,3.8,5.1,4.1c2.6,0.3,4.6-0.9,5.8-3.2c1.9-3.9,1.8-7.8-0.3-11.6
			c-0.6-1-1.5-1.8-2.7-2.3c-0.8-0.3-1.6-0.2-2.4-0.2c-2.4,0.1-4,1.1-5.1,3.2C26.2,33.5,25.8,35.3,25.9,37.2L25.9,37.2z"/>
		<path id="Fill-2" sketch:type="MSShapeGroup" d="M47.6,44.3c0.6,0.3,1.2,0.5,1.7,0.7c1.8,0.7,3.7,1.1,5.6,0.8
			c0.4-0.1,0.9-0.2,1.3-0.3c2.1-0.9,2.5-3.4,0.7-4.8C56,40,55,39.6,54,39.1c-1.5-0.8-3-1.4-4.4-2.3c-3.7-2.4-3.5-7.4-0.9-10
			c1.5-1.5,3.3-2.2,5.4-2.5c2.6-0.4,5.1,0.1,7.6,1.1c0.2,0.1,0.4,0.4,0.3,0.5c-0.3,1.2-0.7,2.4-1,3.6c0,0.1-0.1,0.1-0.1,0.2
			c-0.2-0.1-0.3-0.1-0.5-0.2c-2-1-4.1-1.3-6.3-0.8c-1.4,0.3-2.1,1.3-2.1,2.6c0,0.7,0.3,1.4,0.9,1.7c0.9,0.6,1.9,1.1,2.9,1.5
			c1.2,0.6,2.5,1.1,3.7,1.7c2.5,1.4,3.6,3.7,3.5,6.6c-0.2,2.8-1.5,4.8-3.9,6.1c-2.2,1.1-4.5,1.4-7,1.2c-1.9-0.1-3.6-0.7-5.2-1.6
			c-0.2-0.1-0.4-0.3-0.3-0.5C46.8,46.9,47.2,45.7,47.6,44.3"/>
		<path id="Fill-3" sketch:type="MSShapeGroup" d="M12.2,40.7c0-2.8,0-5.6,0-8.4c0-0.8,0-0.8,0.8-0.8c1.2,0,2.4,0,3.6,0
			c0.4,0,0.6,0.2,0.6,0.6c0,5.7,0,11.4,0,17.2c0,0.4-0.2,0.6-0.6,0.6c-1.3,0-2.7,0-4,0c-0.4,0-0.6-0.2-0.6-0.6
			C12.2,46.4,12.1,43.5,12.2,40.7L12.2,40.7"/>
		<path id="Fill-4" sketch:type="MSShapeGroup" d="M14.8,24.1c1.7,0,2.7,1,2.7,2.7c0,1.6-1.2,2.7-2.8,2.7c-1.5,0-2.6-1.1-2.6-2.6
			C12,25.1,13,24.1,14.8,24.1"/>
		<circle id="Oval-5" sketch:type="MSShapeGroup" class="st0" cx="37.5" cy="37.5" r="37.5">
		</circle>
	</g>
</g>
</svg>
