<?xml version="1.0" encoding="utf-8"?>
<!-- Generator: Adobe Illustrator 21.0.2, SVG Export Plug-In . SVG Version: 6.00 Build 0)  -->
<svg version="1.1" id="Layer_1" xmlns:sketch="http://www.bohemiancoding.com/sketch/ns"
	 xmlns="http://www.w3.org/2000/svg" xmlns:xlink="http://www.w3.org/1999/xlink" x="0px" y="0px" viewBox="0 0 79 79"
	 style="enable-background:new 0 0 79 79;" xml:space="preserve">
<style type="text/css">
	.st0{fill:none;stroke:#000000;stroke-width:3;}
</style>
<title>Linux</title>
<desc>Created with Sketch.</desc>
<g id="Page-1" sketch:type="MSPage">
	<g id="Linux" transform="translate(2.000000, 2.000000)" sketch:type="MSLayerGroup">
		<path id="Fill-1" sketch:type="MSShapeGroup" d="M50.3,45.4c0.1,0.1,0.3,0.1,0.4,0.2c0.5,0.3,0.8,0.9,0.9,1.5
			c0.1,0.5,0.2,1,0.4,1.5c0.1,0.2,0.2,0.4,0.4,0.6c0.3,0.4,0.7,0.8,0.9,1.3c0.4,0.8,0.2,1.5-0.6,2c-0.4,0.3-0.9,0.5-1.3,0.7
			c-0.5,0.3-1.1,0.5-1.6,0.8c-0.7,0.4-1.2,0.9-1.7,1.5c-0.8,0.8-1.7,1.4-2.8,1.7c-1.6,0.4-3.3-0.5-3.8-2c0-0.1-0.1-0.1-0.2-0.1
			c-1,0-1.9-0.1-2.9-0.3c-0.7-0.1-1.4-0.1-2.1,0c-0.8,0.1-1.6,0.3-2.5,0.4c-0.2,0-0.3,0.1-0.5,0.3c-0.5,0.8-1.2,1.2-2,1.3
			c-1,0.2-2,0-3-0.4c-0.4-0.1-0.7-0.3-1.1-0.5c-0.8-0.4-1.6-0.6-2.5-0.7c-0.8-0.1-1.6-0.2-2.4-0.4c-0.6-0.1-1.1-0.4-1.3-1
			c-0.1-0.4-0.1-0.8,0-1.2c0-0.2,0.1-0.4,0.2-0.6c0.3-0.6,0.2-1.2,0.1-1.8c-0.1-0.4-0.1-0.7-0.1-1.1c0-0.9,0.5-1.6,1.3-2
			c0.3-0.1,0.5-0.2,0.8-0.3c0.5-0.2,0.8-0.4,1.1-0.8c0.3-0.4,0.6-0.7,0.9-1.1c0,0,0.1-0.1,0.1-0.2c-0.2-1.6,0.1-3.2,0.7-4.7
			c0.8-2.1,2-4,3.4-5.7c0.5-0.7,1.1-1.3,1.5-2.1c0.5-1,0.8-2.1,1-3.2c0.1-0.9,0-1.8,0-2.7c-0.1-1.5-0.1-2.9,0.2-4.4
			c0.2-0.8,0.6-1.6,1.1-2.3c0.6-0.7,1.4-1.1,2.2-1.4c1.3-0.4,2.6-0.5,3.9-0.2c1.6,0.3,2.7,1.2,3.4,2.6c0.5,0.9,0.7,1.9,0.8,2.9
			c0.2,1.4,0.2,2.8,0.2,4.1c-0.1,1.6,0.4,2.9,1.3,4.2c0.7,0.9,1.4,1.8,2.1,2.7c1.1,1.4,2,2.9,2.7,4.6c0.5,1.3,0.8,2.7,0.7,4.1
			c0,0.6-0.1,1.3-0.3,1.9C50.3,45.2,50.3,45.3,50.3,45.4L50.3,45.4z M49.2,45.2c0.3,0.1,0.3,0.1,0.3-0.2c0-0.2,0-0.3,0-0.5
			c-0.1-0.4-0.3-0.7-0.7-1c-0.5-0.4-1-0.7-1.6-0.9c-0.1-0.1-0.2-0.1-0.1-0.2c0.2-0.9,0.1-1.8-0.1-2.6c-0.2-0.9-0.6-1.8-1.2-2.6
			c-0.4-0.6-0.8-1.2-1.4-1.7c0,0-0.1-0.1-0.2-0.1c0,0,0,0-0.1,0.1c0.1,0.1,0.2,0.3,0.3,0.4c1,1,1.6,2.2,1.9,3.6
			c0.2,0.9,0.2,1.8-0.1,2.7c0,0.1-0.1,0.2-0.2,0.1c-0.2,0-0.3-0.1-0.5-0.1c-0.1,0-0.2-0.1-0.2-0.2c-0.3-1.5-0.8-2.9-1.5-4.2
			c-1.3-2.5-2.3-5-3.1-7.7c0,0,0-0.1-0.1-0.2c-0.4,0.5-0.9,0.8-1.5,1c-0.3,0.1-0.6,0.3-0.9,0.4c-0.4,0.2-0.8,0.5-1.3,0.6
			c-0.9,0.3-1.7,0.2-2.5-0.3c-0.2-0.2-0.4-0.4-0.7-0.6c-0.3-0.2-0.5-0.4-0.8-0.6c0,0.1,0,0.2,0,0.3c0,0.1,0,0.1,0,0.2
			c-0.1,1.1-0.4,2.1-0.8,3.1c-0.6,1.5-1.3,3-1.9,4.5c-0.7,1.5-1.1,3.1-1.2,4.7c0,0.1,0,0.3,0,0.4c0,0,0,0-0.1,0c0,0-0.1-0.1-0.1-0.1
			c-0.7-1-0.8-2.1-0.6-3.3c0.2-1,0.5-2,1-2.9c0.2-0.4,0.4-0.8,0.6-1.2c0-0.1,0.1-0.2,0.1-0.3c-0.1,0-0.1,0.1-0.1,0.1
			c-0.3,0.6-0.7,1.2-1,1.8c-0.6,1.1-1,2.3-1.1,3.6c-0.1,1,0.1,1.9,0.7,2.7c0.4,0.6,1,1,1.6,1.4c0.8,0.5,1.5,1,2.1,1.7
			c0.5,0.5,0.9,1,1.1,1.7c0.3,0.8-0.1,1.4-1,1.6c-0.1,0-0.2,0-0.2,0c0,0,0,0.1,0.1,0.1c0.3,0.4,0.6,0.9,1,1.3c0,0.1,0.1,0.1,0.1,0.1
			c1.5,1,3.2,1.3,4.9,1c1.3-0.2,2.5-0.8,3.6-1.5c0.1,0,0.1-0.1,0.1-0.2c0.1-0.4,0.2-0.7,0.3-1.1c0.2-0.8,0.2-1.7,0.3-2.6
			c0.1-0.7,0.2-1.4,0.4-2.1c0.2-0.6,0.6-1.1,1.2-1.4c0.2-0.1,0.2-0.2,0.3-0.4c0.1-0.5,0.3-0.9,0.8-1c0.3-0.1,0.5-0.1,0.8-0.1
			c0.9,0.1,1.8,0.5,2.5,1.1C49,44.2,49.3,44.6,49.2,45.2L49.2,45.2z M30.6,56.3c0.2,0,0.4,0,0.7-0.1c1.3-0.2,2.1-1.1,2-2.4
			c0-0.5-0.2-1-0.5-1.4c-0.5-0.7-1-1.4-1.5-2.1c-0.5-0.7-1-1.4-1.4-2.2c-0.3-0.7-0.7-1.4-1.1-2c-0.3-0.4-0.6-0.8-1-1
			c-0.8-0.5-1.5-0.4-2.1,0.3c-0.2,0.3-0.5,0.6-0.7,0.9c-0.3,0.5-0.8,0.8-1.3,1c-0.3,0.1-0.5,0.2-0.8,0.3c-0.7,0.3-1,0.8-1,1.5
			c0,0.3,0,0.6,0.1,0.9c0.1,0.7,0.2,1.4-0.1,2.1c-0.2,0.4-0.2,0.8-0.2,1.2c0,0.4,0.2,0.7,0.6,0.9c0.4,0.2,0.9,0.3,1.4,0.3
			c0.7,0.1,1.4,0.2,2.1,0.3c0.8,0.1,1.5,0.4,2.3,0.8C28.8,56,29.7,56.3,30.6,56.3L30.6,56.3z M44.4,44.8c-0.5,0.3-0.8,0.7-1,1.2
			c-0.3,0.8-0.4,1.7-0.4,2.5c0,0.9-0.2,1.8-0.4,2.6C42.4,52.1,42.1,53,42,54c-0.1,1.1,0.5,2.1,1.4,2.5c0.8,0.4,1.5,0.3,2.3,0
			c0.9-0.3,1.6-0.9,2.2-1.6c0.3-0.3,0.6-0.6,0.9-0.9c0.6-0.5,1.4-0.9,2.1-1.2c0.5-0.2,1-0.5,1.4-0.8c0.5-0.3,0.7-0.8,0.4-1.4
			c-0.2-0.4-0.4-0.7-0.7-1c-0.4-0.5-0.7-1-0.8-1.7c-0.1-0.4-0.2-0.8-0.3-1.2c-0.2-0.5-0.5-0.8-1.1-0.9c-0.3-0.1-0.6,0-0.9,0
			c-0.1,0-0.2,0.1-0.2,0.1c-0.3,0.4-0.7,0.6-1.2,0.8c-0.4,0.2-0.8,0.3-1.3,0.3c-0.7,0-1.1-0.4-1.5-1C44.6,45.7,44.5,45.3,44.4,44.8
			L44.4,44.8z M36.4,26.7c-0.6,0-1,0.1-1.4,0.4c-0.6,0.5-1.2,1-1.8,1.4c-0.4,0.3-0.5,0.7-0.2,1.2c0.2,0.3,0.5,0.6,0.8,0.8
			c0.4,0.3,0.8,0.6,1.2,0.9c0.7,0.6,1.5,0.7,2.3,0.4c0.3-0.1,0.6-0.2,0.8-0.4c0.5-0.3,1.1-0.6,1.7-0.8c0.5-0.2,0.9-0.6,1.2-1.1
			c0.2-0.4,0.1-0.8-0.2-1.1c-0.2-0.2-0.5-0.3-0.7-0.4c-0.7-0.3-1.4-0.5-2.1-0.9C37.3,26.8,36.8,26.7,36.4,26.7L36.4,26.7z
			 M37.9,26.7c0-0.1,0-0.2,0-0.3c0-0.4,0.1-0.7,0.3-1c0.3-0.6,1-0.5,1.3,0c0.3,0.6,0.3,1.3,0,1.9c0,0,0,0.1-0.1,0.1
			c0.3,0.1,0.5,0.2,0.8,0.3c0.1,0.1,0.2,0,0.2-0.1c0.3-0.4,0.4-0.8,0.5-1.3c0.1-0.8-0.1-1.6-0.7-2.3c-0.6-0.6-1.4-0.7-2.1-0.3
			c-0.8,0.6-1.1,1.7-1,2.5c0,0,0,0.1,0.1,0.1C37.3,26.5,37.6,26.6,37.9,26.7L37.9,26.7z M45.8,43.3c-0.5,0-0.8,0.2-0.9,0.7
			c-0.1,0.6,0,1.1,0.3,1.7c0.2,0.4,0.5,0.6,1,0.6c0.7-0.1,1.2-0.4,1.6-0.9c0.3-0.4,0.3-0.9-0.1-1.2c-0.1-0.1-0.3-0.2-0.5-0.3
			C46.7,43.5,46.3,43.3,45.8,43.3L45.8,43.3z M33.9,27.6c-0.1-0.2-0.3-0.5-0.3-0.7c-0.1-0.5-0.1-0.9,0.1-1.3
			c0.2-0.3,0.5-0.3,0.7-0.1c0.1,0.1,0.2,0.3,0.3,0.4c0.1,0.3,0.1,0.6,0.2,0.8c0.2-0.1,0.4-0.2,0.6-0.3c0,0,0.1-0.1,0.1-0.1
			c0-0.7-0.1-1.3-0.4-1.8c-0.2-0.3-0.5-0.6-0.9-0.6c-0.5-0.1-0.9,0.2-1.2,0.7c-0.4,0.8-0.4,1.5-0.1,2.3c0.1,0.3,0.3,0.6,0.5,0.9
			C33.6,27.7,33.8,27.6,33.9,27.6L33.9,27.6z"/>
		<path id="Fill-2" sketch:type="MSShapeGroup" d="M33.2,28.9c0.1,0.1,0.2,0.1,0.3,0.2c0.3,0.3,0.6,0.5,0.9,0.8
			c0.9,0.7,1.9,0.8,3,0.3c0.6-0.3,1.1-0.6,1.7-0.9c0.2-0.1,0.5-0.3,0.7-0.4c0.1,0,0.2-0.1,0.3-0.1c0.1,0.3,0.1,0.3-0.2,0.4
			c-0.3,0.1-0.5,0.3-0.7,0.4c-0.6,0.3-1.2,0.7-1.8,0.9c-1.2,0.5-2.4,0.2-3.4-0.6c-0.2-0.2-0.4-0.4-0.6-0.6
			C33.1,29.3,33.1,29.2,33.2,28.9"/>
		<circle id="Oval-5" sketch:type="MSShapeGroup" class="st0" cx="37.5" cy="37.5" r="37.5">
		</circle>
	</g>
</g>
</svg>
